<svg xmlns="http://www.w3.org/2000/svg" viewBox="0 0 595.68 595.68"><defs><style>.cls-1{fill:#fff;}</style></defs><g id="Layer_2" data-name="Layer 2"><g id="Layer_1-2" data-name="Layer 1"><path class="cls-1" d="M595.68,595.68H0V0H595.68Zm-14.48-296C581.14,145.08,456.28,19.06,300.88,18.91,144.53,18.77,20,145.69,20,299.61c0,155.15,125.67,281,280.66,281S581.19,454.77,581.2,299.72Z"/><path d="M581.2,299.72c0,155-125.63,280.81-280.55,280.87S20,454.76,20,299.61C20,145.69,144.53,18.77,300.88,18.91,456.28,19.06,581.14,145.08,581.2,299.72Zm-7,0c0-151.09-122.3-273.65-273.27-273.83S27,148.32,27,299.6,149.16,573.44,300.4,573.53C452.45,573.61,574.22,450.25,574.16,299.74Z"/><path class="cls-1" d="M574.16,299.74c.06,150.51-121.71,273.87-273.76,273.79C149.16,573.44,27,450.88,27,299.6S149.78,25.72,300.89,25.91,574.17,148.65,574.16,299.74Zm-7.72.1C566.7,153.44,448,33.78,300.93,33.62,154.05,33.47,34.79,152.48,34.65,299.37s118.8,266.34,265.58,266.48C448,566,566.6,446,566.44,299.84Z"/><path d="M566.44,299.84C566.6,446,448,566,300.23,565.85,153.45,565.71,34.52,446.38,34.65,299.37S154.05,33.47,300.93,33.62C448,33.78,566.7,153.44,566.44,299.84Zm-265.83-264C155,35.88,37,153.89,36.89,299.58s118,264,263.66,264c146.06,0,263.77-118.77,263.72-264C564.21,154.21,446.19,35.73,300.61,35.87Z"/><path class="cls-1" d="M300.61,35.87c145.58-.14,263.6,118.34,263.66,263.77.05,145.2-117.66,264-263.72,264-145.69-.05-263.72-118.23-263.66-264S155,35.88,300.61,35.87Zm195,263.74c.07-107.85-87.66-195-195-195.06-107,0-195.06,86.82-195,195.3a195,195,0,0,0,195.25,195C408.46,494.81,495.64,407.39,495.56,299.61ZM132.19,168c3.43-4.18,6.68-8.11,9.88-12.08a6.62,6.62,0,0,0,1.05-1.87,7.24,7.24,0,0,0-1.56-7.78,6.41,6.41,0,0,0-7.37-1.92l-1.34.41c0-.81,0-1.37-.1-1.91a6.51,6.51,0,0,0-10.45-4.58,19.33,19.33,0,0,0-3.08,3c-2.26,2.58-4.45,5.21-6.66,7.84a14,14,0,0,0-1,1.42ZM343.51,63.36c-2.11,8.92-4.15,17.58-6.23,26.39,1.89.48,3.49.93,5.12,1.28,3.67.78,7.32,1.71,11,2.2,3.33.43,6-1.5,7.33-4.66,1.22-2.93.56-5.63-1.95-8-.21-.2-.4-.42-.69-.73.54-.27,1-.46,1.39-.69a6.2,6.2,0,0,0,3.39-5.69,6.34,6.34,0,0,0-3.56-5.84,13,13,0,0,0-2.9-1.1C352.27,65.46,348.07,64.47,343.51,63.36Zm-43.15,480a11.12,11.12,0,1,0-11.12-11A11,11,0,0,0,300.36,543.39ZM196.61,113.13,181.89,90.36l-4.23,2.79,9.28,14.41a5.17,5.17,0,0,1-2.36-.61c-4.9-2.34-9.78-4.72-14.7-7a3,3,0,0,0-2.19-.29,31.58,31.58,0,0,0-3.84,2.45c5,7.72,9.82,15.19,14.71,22.77l4.22-2.84-9.05-14,.3-.36,18,8.5ZM450.79,454.76l19.48,18.53,3.41-3.71c-4.14-4.12-8.33-7.83-12.12-12a2.69,2.69,0,0,1,1.31-.05l14.27,3.1c4.57,1,4.57,1,7.58-2.7a2.77,2.77,0,0,0,.18-.45L465.46,439l-3.5,3.68c1.45,1.39,2.76,2.65,4.08,3.9s2.81,2.61,4.15,4,2.77,2.25,3.86,4.06c-.68-.09-1.07-.1-1.45-.18q-6.92-1.44-13.82-2.91c-4.68-1-4.68-1-7.78,2.71A3.51,3.51,0,0,0,450.79,454.76Zm-227.18,47-6.13,15.49a10.26,10.26,0,0,1-1.16-3.48c-.86-4.72-1.69-9.44-2.58-14.15-.15-.82-.11-1.81-1.17-2.2-1.39-.5-2.78-1-4.32-1.61L198.41,521l4.73,1.81c1.13-2.89,2.11-5.51,3.17-8.09s1.89-5.27,3.6-7.63c1.2,6.58,2.39,13.16,3.59,19.8l5,1.88c3.31-8.47,6.54-16.76,9.84-25.2ZM316,77.2l-.47.1c-.45-.74-.92-1.48-1.35-2.24l-7.89-13.71c-.39-.68-.68-1.49-1.69-1.49h-4.49c-.25,9-.5,17.89-.74,26.86h5c.18-5.56.36-10.94.53-16.33a4.75,4.75,0,0,1,1.67,1.79c2.62,4.49,5.21,9,7.86,13.46.37.64,1,1.48,1.58,1.57a34.69,34.69,0,0,0,4.81.07c.25-9.11.48-17.94.72-27h-5C316.4,66.07,316.21,71.63,316,77.2ZM505.8,239.75c.4,1.72.74,3.24,1.12,4.92L523.29,241a5.91,5.91,0,0,1-1.47,2.07c-3.74,3.71-7.52,7.4-11.23,11.15a3,3,0,0,0-1,2,33.11,33.11,0,0,0,1.06,4.58L537,254.69l-1.06-4.86c-5.74,1-11.15,2.66-16.95,3.23a7.2,7.2,0,0,1,1.72-1.72c3.84-3.73,7.67-7.47,11.45-11.26a3.05,3.05,0,0,0,1-2,32.32,32.32,0,0,0-1.06-4.41Zm-420,56.43-26.65.68V302l17-.43a4.34,4.34,0,0,1-1.55,1.6q-5.82,3.8-11.65,7.56c-3.79,2.47-3.79,2.47-3.43,7,0,.14.15.26.39.65l26.39-.68v-4.91c-2,0-3.8,0-5.61,0s-3.83.14-5.75.12c-1.74,0-3.52.32-5.61-.22l12.94-8.47C86.33,301.53,86.33,301.53,85.75,296.18Zm16.87-101,2.89-5.34c3.42,1.32,3.73,1.76,3.13,5a12.31,12.31,0,0,1-1.23,3.59A6.89,6.89,0,0,1,99.94,202a14.37,14.37,0,0,1-7.43-3.65,6.78,6.78,0,0,1-1.86-7.87c1.1-3,3-4.83,6.44-4.71a3.24,3.24,0,0,0,.79-.2l1.49-4.91A9.06,9.06,0,0,0,90,183a16,16,0,0,0-4,6.48,11.9,11.9,0,0,0,2.43,12.51,16.44,16.44,0,0,0,9.94,5.34,11.89,11.89,0,0,0,12.15-5,19,19,0,0,0,3.59-12.17,3.52,3.52,0,0,0-2.33-3.5c-2.05-.88-4-2.05-6-3.07-.54-.27-1.12-.46-1.82-.74l-5.37,10.31Zm-28.06,95c7,0,11.78-3.83,13.06-10.59,1.44-7.57-2.36-13.62-9.77-15.34a22.63,22.63,0,0,0-5.44-.6c-6.34.08-10.87,3.87-12.24,10-1.77,8,2.2,14.18,10.14,15.86C71.71,289.81,73.14,289.93,74.56,290.13Zm13.22-54.4c.76-.1,1.64-.15,2.49-.33,5.19-1.13,9.06-5.52,10-11.31a11.72,11.72,0,0,0-5.42-12.38,18.91,18.91,0,0,0-7.74-3c-5.39-.88-10.11,1.25-12.72,6a21.65,21.65,0,0,0-2,5.35,10.86,10.86,0,0,0,3.54,10.85C79.2,233.94,83.24,235.33,87.78,235.73Zm390.1-55.36c2.22,3.84,4.15,7.42,6.32,10.86a9.59,9.59,0,0,0,9.58,4.68,19.09,19.09,0,0,0,10.89-5.09c3.47-3,5.86-7.67,2.62-13.57-1.58-2.88-3.18-5.73-4.8-8.59-.3-.53-.69-1-1.09-1.59Zm-14,298.79c-6.07-7-11.91-13.7-17.87-20.55-3.27,2.91-6.39,5.53-9.32,8.35-3.35,3.22-4.06,7.16-2.33,11.44a19.25,19.25,0,0,0,8.57,9.7c3.91,2.21,7.84,2.06,11.41-.83C457.47,484.71,460.52,482,463.85,479.16ZM245.14,93.83c4.84-1.26,9.63-1.73,14-3.66a8.53,8.53,0,0,0,5.09-6,18.35,18.35,0,0,0-3.74-16.41,8.16,8.16,0,0,0-7.62-3.25c-4.55.66-9,1.77-13.85,2.74C241.12,76.23,243.1,84.89,245.14,93.83ZM429.68,505.47,416,482l-4.66,2.84c1.23,2.12,2.34,4,3.38,5.86a3,3,0,0,1,.5,1.77c-.34,1.77-.88,3.51-1.38,5.44-.93-.49-1.64-.83-2.33-1.22-3.07-1.72-6.11-3.48-9.21-5.15a2.52,2.52,0,0,0-2-.29c-1.74.85-3.37,1.93-5.38,3.13l17.54,8.86c-1.12,4.68-2.2,9.19-3.4,14.24,2-1.15,3.37-2.06,4.86-2.8a3.31,3.31,0,0,0,1.84-2.59c.78-3.83,1.63-7.66,2.47-11.48.15-.72.4-1.41.73-2.55,2.13,3.63,4,6.83,6,10.15ZM60,327.37l-.5.16a37.33,37.33,0,0,1,.82,4.42,4.16,4.16,0,0,0,2.43,3.51c3.31,1.94,6.54,4,9.79,6,.5.31,1,.7,1.7,1.25-3.94,1.12-7.76,1.35-11.38,2.49l1.07,5.21,26.51-5.1-1-5.34c-2.1.39-4,.81-6,1.09a5.11,5.11,0,0,1-2.76-.13,44,44,0,0,1-4.57-3l11.07-9.75-1.39-6.88L71.68,335ZM501.87,434.22l-22-15.94L467.81,435l3.7,2.66,8.89-12.2,5.94,4.3-7.92,11,3.61,2.65,8.09-11,4.76,3.56-8.53,11.8,3.7,2.68C494,445,497.85,439.76,501.87,434.22ZM70.73,376.85c8.83-2.47,17.51-4.68,26.15-7.22-1.86-6.79-3.62-13.24-5.44-19.86L87.09,351,91,365.6l-7.07,1.91-3.65-13.09L76,355.7c1.2,4.49,2.32,8.7,3.49,13.09l-5.76,1.47c-1.35-4.85-2.6-9.37-3.89-14l-4.37,1.18ZM389.64,106.23l4.85,2.45,5.39-10.55L409.4,103l-5.26,10.58c1.37.7,2.5,1.29,3.64,1.85.34.17.72.27,1.29.48L421.2,91.76l-4.89-2.4-4.83,9.47L402,94c1.6-3.24,3.11-6.29,4.72-9.53L401.83,82C397.75,90.1,393.78,98,389.64,106.23ZM176.37,500c-1.81,3.68-1.45,6.68,1,9.35a15.48,15.48,0,0,0,7.74,4.57,7.24,7.24,0,0,0,7.31-1.88,7,7,0,0,0,.84-8.83,52.3,52.3,0,0,0-4.37-5.06,30.89,30.89,0,0,1-2.68-3.06,2.5,2.5,0,0,1,1-3.82,5.28,5.28,0,0,1,3-.37c4.09.85,5.8,3.58,5,7.73a3.67,3.67,0,0,0,.06.75l4.33,2a8.64,8.64,0,0,0-1-10.56,16.44,16.44,0,0,0-8.37-4.89,7.93,7.93,0,0,0-8.79,3.4,7.65,7.65,0,0,0,.57,9.55c1.09,1.36,2.4,2.56,3.59,3.85.92,1,1.86,2,2.71,3a2.21,2.21,0,0,1,.27,2.68,2.26,2.26,0,0,1-2.31.93,5.62,5.62,0,0,1-5.54-6.09,6.54,6.54,0,0,0-.08-1ZM152.09,134.21A8.59,8.59,0,0,0,161.9,137a16,16,0,0,0,8.23-6.68,7.9,7.9,0,0,0-.56-9.2,7.33,7.33,0,0,0-8.53-2.69c-2,.6-3.85,1.53-5.79,2.26a17.8,17.8,0,0,1-3.62,1.18c-2,.31-3.12-1.29-2.28-3.2a5.6,5.6,0,0,1,8.08-2.75,2.43,2.43,0,0,0,.6.06l3.79-3.33c-2.27-2.61-4.94-3.59-8-2.71a14.14,14.14,0,0,0-8.91,7.16,6.64,6.64,0,0,0,.58,7.46,6.56,6.56,0,0,0,7.16,2.73,67.39,67.39,0,0,0,6.52-2.31,22.15,22.15,0,0,1,3.85-1.25,2.38,2.38,0,0,1,2.9,2.42,5.83,5.83,0,0,1-.92,3.1c-2.25,3.24-5.3,3.77-8.71,1.71-.2-.12-.42-.21-.84-.41Zm288.5-6.35a8.65,8.65,0,0,0-1,10.29,16.11,16.11,0,0,0,8.13,6.78,7.82,7.82,0,0,0,8.76-2.08,7.52,7.52,0,0,0,1.21-9.07c-.89-1.69-2.05-3.23-3.08-4.85-.73-1.14-1.5-2.26-2.12-3.47a2,2,0,0,1,.33-2.62,3.41,3.41,0,0,1,2.42-.44,5.45,5.45,0,0,1,4.19,7.19,3.61,3.61,0,0,0,0,.68l4.07,3c2-2.62,2.46-5.25,1.22-7.91a13.61,13.61,0,0,0-9.41-7.86,7,7,0,0,0-8.3,8.75,21.71,21.71,0,0,0,2.46,4.88c.89,1.51,2,2.89,2.94,4.37a2.86,2.86,0,0,1,.2,3.37,3.32,3.32,0,0,1-3.39,1.3,6.25,6.25,0,0,1-5.07-8c.16-.5.31-1,.49-1.58ZM222.8,80.66c-1.33-3-3.09-4.57-5.73-4.88A13.35,13.35,0,0,0,205,80.31a6.94,6.94,0,0,0,3.69,11.37,19.33,19.33,0,0,0,5.22.22c1.83-.07,3.64-.46,5.47-.57s2.81.51,3.32,1.8a3.37,3.37,0,0,1-1,3.71,6.15,6.15,0,0,1-9.27,0,8.16,8.16,0,0,1-.69-1L207,98.19c1.69,3.12,3.82,5.3,7.23,5.59A14.47,14.47,0,0,0,226.48,99c2.21-2.38,2.41-5.33,1.18-8.3a7.14,7.14,0,0,0-6.82-4.79c-1.74,0-3.5.19-5.25.29-1.59.1-3.18.23-4.77.27a2.12,2.12,0,0,1-2.26-1.42,2.34,2.34,0,0,1,.83-2.57,5.64,5.64,0,0,1,8.41,0c.09.1.29.09.59.17Zm164-5.14-5.21-2.08c-3.82,3.43-18.69,19.67-19.55,21.4l4.92,2L371.43,92l10,4v6.63l5.39,2.06ZM501,377.81c-.57,1.68-1.16,3.45-1.87,5.56l29.14-1.88L530,376.2c-2.5-2.65-20.87-17.56-22.57-18.3-.53,1.67-1.06,3.33-1.62,5.11l5.1,4.08c-1.15,3.48-2.24,6.8-3.36,10.21ZM296.61,86.4c-4.39-8.83-8.65-17.38-13-26.06l-5.81.43c-2.78,9.35-5.5,18.48-8.29,27.87l5.7-.45a48,48,0,0,0,1.32-4.65c.27-1.39,1-1.8,2.31-1.87,2.23-.1,4.46-.35,6.69-.5.77,0,1.55,0,2.31,0l2.9,5.8Zm173.17,74.4-3.11,5.83,3.83,4.49c4.64-8.77,9.13-17.26,13.67-25.82l-3.81-4.39c-9.2,3.21-18.22,6.17-27.4,9.51l3.68,4.33,6.21-2.18Zm-36.1-27.75c2.35-9.63,4.63-19,6.93-28.34-.92-.68-1.68-1.25-2.46-1.8s-1.54-1-2.21-1.51c-7.68,4.48-22.79,14.61-24,16.12l4.29,3.06,5.49-3.63,8.7,6.25-1.54,6.45Zm-64,378c-.46-.49-.83-.9-1.22-1.29-1.15-1.17-2.16-3-3.51-3.31s-3.11.9-4.69,1.45c-.06,0-.1.11-.31.33.52.62,1.06,1.29,1.62,1.94l14.14,16.26c3.42,3.93,3.43,3.93,8.24,1.81a5.48,5.48,0,0,0,.43-.48c.25-9.26.8-18.83.9-28.68l-5.45,1.95v6.48ZM107.49,446.67c3.29-2.61,6.28-5,9.29-7.37,1.82-1.43,3.67-2.82,5.53-4.2a3.74,3.74,0,0,1,4.07-.5,6.5,6.5,0,0,1,3.63,4.78,4.05,4.05,0,0,1-1.17,3.74A25.94,25.94,0,0,1,126.7,445c-3.49,2.8-7,5.57-10.49,8.36-.67.53-1.3,1.1-2,1.72l3.29,4.13c.49-.34.83-.53,1.13-.77,3.75-3,7.52-5.94,11.24-9a36.17,36.17,0,0,0,3.35-3.08,7.78,7.78,0,0,0,1.49-9.09,17.14,17.14,0,0,0-5.25-6.74,7.51,7.51,0,0,0-9.35-.55,45.09,45.09,0,0,0-4.3,3c-3.4,2.65-6.76,5.35-10.13,8-.48.38-.91.82-1.47,1.33ZM505.05,236.91c.94-.85,1.53-1.37,2.11-1.91l15.75-14.73c3.85-3.6,3.85-3.6,1.43-8.32,0-.07-.12-.11-.23-.2H495.26l2.05,5.23h6.59c1.3,3.38,2.57,6.7,3.84,10l-4.83,4.45C503.62,233.23,504.27,234.9,505.05,236.91Zm18.71,84.9c-.1,1-.19,1.88-.26,2.74-.13,1.83-.36,3.66-.35,5.49a7.63,7.63,0,0,0,7.34,7.92c5,.48,8.26-1.75,9-6.43.63-3.77,1-7.59,1.49-11.39a15.42,15.42,0,0,0,0-1.82c-8.91-1.09-17.71-2.24-26.72-3.12-.21,1.91-.4,3.53-.6,5.3ZM499.48,423.73a9,9,0,0,0,7.51-.53,12.54,12.54,0,0,0,3.54-19.11,19.29,19.29,0,0,0-7.44-5.1c-7.36-3-14.57.58-16.81,8.21-1.27,4.3.17,7.78,3.28,11l4-3.64c-.54-.69-1-1.24-1.41-1.83a5.63,5.63,0,0,1-.31-6.52,5.87,5.87,0,0,1,6.35-2.85,16.6,16.6,0,0,1,8.84,5,5.87,5.87,0,0,1,1,7.08,5.48,5.48,0,0,1-6,3.3,7.76,7.76,0,0,0-1,.05C500.47,420.39,500,422,499.48,423.73Zm35.28-126a8.88,8.88,0,0,0,5.66-4.35c3-5.2,1.66-15.25-7-17.81a17.74,17.74,0,0,0-12.66.77c-8.26,3.73-8.39,13-5,18.07,1.79,2.67,4.43,3.89,7.64,4.4.44-1.92.8-3.52,1.18-5.19-.85-.28-1.52-.49-2.19-.73a5.5,5.5,0,0,1-4-4.93,5.61,5.61,0,0,1,3.16-6,15.21,15.21,0,0,1,11.2-1,5.83,5.83,0,0,1,4.23,5.3,5.54,5.54,0,0,1-2.73,5.71c-.39.24-.75.52-1.24.86ZM134.39,471c1.87-2.08,3.48-4,5.2-5.75s3.56-3.44,5.34-5.17l5.33-5.14c-1.47-1.36-2.67-2.49-4-3.73L130,466.82l-5.34-5.73-3.2,3.15,14.79,15.42,3.25-3.23ZM159,491.32l-6.55-4.61-2.64,3.67L167.19,503l2.68-3.71-6.46-4.73,13.22-18.26-4.45-3.17C167.73,479.3,163.42,485.22,159,491.32ZM101.1,380.6l-21,8.14c-1-2.53-2-4.87-3-7.4L72.93,383l7.8,20L85,401.41c-.95-2.58-1.83-5-2.78-7.52l20.9-8.22ZM88.56,419l11.7,18.09,3.8-2.49-4.27-6.78,18.89-12.25c-1.11-1.62-2.06-3-3.07-4.53L96.77,423.18l-4.37-6.7Zm420-67.7,21.84,5.24c-.6,2.75-1.15,5.2-1.72,7.8l4.4,1c1.68-7.13,3.29-13.94,4.94-20.93l-4.41-1-1.95,7.72L509.83,346C509.4,347.82,509,349.36,508.59,351.26ZM89.52,241.4c-1.12,4.54-2.17,8.83-3.25,13.23l-21.65-5.08c-.42,1.84-.8,3.49-1.23,5.32L89.51,261c1.49-6.29,2.91-12.31,4.37-18.5ZM233.61,505.21c-2.88,8.77-5.79,17.16-8.48,25.77l5.16,1.62c2.87-8.65,5.66-17.08,8.52-25.68Zm282.17-312.9-24.29,12,2.45,4.89,24.27-12Zm25.38,112.53c-9,0-17.87-.73-26.83-.52v5.31l26.83.73Zm-400,178.51,4.21,3.51,17.49-20.65-4.19-3.52Zm246.12,14.08,11.31,24.66,4.93-2.38c-3.83-8.34-7.53-16.41-11.29-24.58ZM132,128.23l18.53,19.33,3.85-3.9L135.68,124.2Zm-11.83,57.14,3-4.61L100.32,166l-2.91,4.65ZM420.74,479.1l15.8,22L441,497.9l-15.8-22Zm-231-392.64c4.09,8.25,7.94,16.27,12,24.34l4.85-2.46c-4-8.17-8-16.16-12-24.3Z"/><path d="M495.56,299.61c.08,107.78-87.1,195.2-194.74,195.27a195,195,0,0,1-195.25-195c0-108.48,88-195.31,195-195.3C407.9,104.56,495.63,191.76,495.56,299.61Zm-6.95.15c0-103.83-84.08-188.06-187.88-188.15s-188,84-188.14,187.85c-.16,104.24,84.5,188.32,187.84,188.43C402.81,488,488.38,405.17,488.61,299.76Z"/><path d="M132.19,168l-20.58-17.48a14,14,0,0,1,1-1.42c2.21-2.63,4.4-5.26,6.66-7.84a19.33,19.33,0,0,1,3.08-3,6.51,6.51,0,0,1,10.45,4.58c.08.54.06,1.1.1,1.91l1.34-.41a6.41,6.41,0,0,1,7.37,1.92,7.24,7.24,0,0,1,1.56,7.78,6.62,6.62,0,0,1-1.05,1.87C138.87,159.86,135.62,163.79,132.19,168Zm0-7.17c1.84-2.25,3.63-4.28,5.24-6.45a3.44,3.44,0,0,0-5.06-4.61c-2,1.92-3.76,4.06-5.78,6.28Zm-13.79-11.7,4.82,4c1.65-2,3.23-3.77,4.64-5.67,1.23-1.67,1-3.37-.34-4.47s-2.83-1-4.38.63S120.15,147.11,118.43,149.1Z"/><path d="M343.51,63.36c4.56,1.11,8.76,2.1,12.93,3.16a13,13,0,0,1,2.9,1.1,6.34,6.34,0,0,1,3.56,5.84,6.2,6.2,0,0,1-3.39,5.69c-.41.23-.85.42-1.39.69.29.31.48.53.69.73,2.51,2.37,3.17,5.07,1.95,8-1.32,3.16-4,5.09-7.33,4.66-3.71-.49-7.36-1.42-11-2.2-1.63-.35-3.23-.8-5.12-1.28C339.36,80.94,341.4,72.28,343.51,63.36Zm.14,23.3c2.92.62,5.53,1.3,8.19,1.69a3.13,3.13,0,0,0,3.9-2.62,3.23,3.23,0,0,0-2.22-4c-2.61-.87-5.31-1.48-8.18-2.26C344.74,82,344.22,84.21,343.65,86.66ZM347.83,69c-.5,2.09-.95,4-1.47,6.17,2.66.56,5.12,1.21,7.63,1.57a2.79,2.79,0,0,0,3.35-2.34,2.71,2.71,0,0,0-2.12-3.48C352.87,70.22,350.46,69.7,347.83,69Z"/><path d="M300.36,543.39a11.12,11.12,0,0,1-.11-22.23,11.12,11.12,0,1,1,.11,22.23Z"/><path d="M196.61,113.13l-4.61,3-18-8.5-.3.36,9.05,14-4.22,2.84c-4.89-7.58-9.72-15-14.71-22.77a31.58,31.58,0,0,1,3.84-2.45,3,3,0,0,1,2.19.29c4.92,2.31,9.8,4.69,14.7,7a5.17,5.17,0,0,0,2.36.61l-9.28-14.41,4.23-2.79Z"/><path d="M450.79,454.76a3.51,3.51,0,0,1,.21-.53c3.1-3.71,3.1-3.7,7.78-2.71s9.21,2,13.82,2.91c.38.08.77.09,1.45.18-1.09-1.81-2.62-2.8-3.86-4.06s-2.77-2.65-4.15-4-2.63-2.51-4.08-3.9l3.5-3.68,19.44,18.52a2.77,2.77,0,0,1-.18.45c-3,3.7-3,3.69-7.58,2.7l-14.27-3.1a2.69,2.69,0,0,0-1.31.05c3.79,4.14,8,7.85,12.12,12l-3.41,3.71Z"/><path d="M223.61,501.74l4.69,1.87c-3.3,8.44-6.53,16.73-9.84,25.2l-5-1.88c-1.2-6.64-2.39-13.22-3.59-19.8-1.71,2.36-2.54,5-3.6,7.63s-2,5.2-3.17,8.09L198.41,521l9.84-25.25c1.54.58,2.93,1.11,4.32,1.61,1.06.39,1,1.38,1.17,2.2.89,4.71,1.72,9.43,2.58,14.15a10.26,10.26,0,0,0,1.16,3.48Z"/><path d="M316,77.2c.19-5.57.38-11.13.57-16.87h5c-.24,9-.47,17.85-.72,27a34.69,34.69,0,0,1-4.81-.07c-.6-.09-1.21-.93-1.58-1.57-2.65-4.46-5.24-9-7.86-13.46A4.75,4.75,0,0,0,305,70.4c-.17,5.39-.35,10.77-.53,16.33h-5c.24-9,.49-17.86.74-26.86h4.49c1,0,1.3.81,1.69,1.49l7.89,13.71c.43.76.9,1.5,1.35,2.24Z"/><path d="M505.8,239.75l26.32-6a32.32,32.32,0,0,1,1.06,4.41,3.05,3.05,0,0,1-1,2c-3.78,3.79-7.61,7.53-11.45,11.26a7.2,7.2,0,0,0-1.72,1.72c5.8-.57,11.21-2.25,16.95-3.23l1.06,4.86-26.34,6.05a33.11,33.11,0,0,1-1.06-4.58,3,3,0,0,1,1-2c3.71-3.75,7.49-7.44,11.23-11.15a5.91,5.91,0,0,0,1.47-2.07l-16.37,3.68C506.54,243,506.2,241.47,505.8,239.75Z"/><path d="M85.75,296.18c.58,5.35.58,5.35-3.53,8l-12.94,8.47c2.09.54,3.87.2,5.61.22,1.92,0,3.83-.09,5.75-.12s3.63,0,5.61,0v4.91l-26.39.68c-.24-.39-.37-.51-.39-.65-.36-4.57-.36-4.57,3.43-7s7.77-5,11.65-7.56a4.34,4.34,0,0,0,1.55-1.6l-17,.43v-5.1Z"/><path d="M102.62,195.17l-4-2.09L104,182.77c.7.28,1.28.47,1.82.74,2,1,3.91,2.19,6,3.07a3.52,3.52,0,0,1,2.33,3.5,19,19,0,0,1-3.59,12.17,11.89,11.89,0,0,1-12.15,5,16.44,16.44,0,0,1-9.94-5.34A11.9,11.9,0,0,1,86,189.43,16,16,0,0,1,90,183a9.06,9.06,0,0,1,9.4-2.32l-1.49,4.91a3.24,3.24,0,0,1-.79.2c-3.39-.12-5.34,1.75-6.44,4.71a6.78,6.78,0,0,0,1.86,7.87A14.37,14.37,0,0,0,99.94,202a6.89,6.89,0,0,0,7.47-3.58,12.31,12.31,0,0,0,1.23-3.59c.6-3.21.29-3.65-3.13-5Z"/><path d="M74.56,290.13c-1.42-.2-2.85-.32-4.25-.62-7.94-1.68-11.91-7.91-10.14-15.86,1.37-6.18,5.9-10,12.24-10a22.63,22.63,0,0,1,5.44.6c7.41,1.72,11.21,7.77,9.77,15.34C86.34,286.3,81.6,290.1,74.56,290.13ZM73,269l-.07.31c-.4,0-.8,0-1.2,0-3.86.2-6.47,2.41-7,6-.62,3.94,1.11,6.94,4.86,8.28a15.07,15.07,0,0,0,7.56.68,7,7,0,0,0,6-6c.44-3.46-1-6.28-4.12-7.59A45.87,45.87,0,0,0,73,269Z"/><path d="M87.78,235.73c-4.54-.4-8.58-1.79-11.84-4.85A10.86,10.86,0,0,1,72.4,220a21.65,21.65,0,0,1,2-5.35c2.61-4.75,7.33-6.88,12.72-6a18.91,18.91,0,0,1,7.74,3,11.72,11.72,0,0,1,5.42,12.38c-.93,5.79-4.8,10.18-10,11.31C89.42,235.58,88.54,235.63,87.78,235.73ZM87.43,230c4,.05,6.48-1.63,7.63-4.73a6.88,6.88,0,0,0-2.36-8.14A14.07,14.07,0,0,0,84.3,214a6.64,6.64,0,0,0-6.64,4.55,6.8,6.8,0,0,0,1.66,7.91A13.76,13.76,0,0,0,87.43,230Z"/><path d="M477.88,180.37l23.52-13.3c.4.58.79,1.06,1.09,1.59,1.62,2.86,3.22,5.71,4.8,8.59,3.24,5.9.85,10.55-2.62,13.57a19.09,19.09,0,0,1-10.89,5.09,9.59,9.59,0,0,1-9.58-4.68C482,187.79,480.1,184.21,477.88,180.37ZM500.3,174c-2.93,1.66-5.5,3.1-8.05,4.56s-5.1,2.79-7.64,4.4c1.14,1.93,2.08,3.59,3.08,5.22a4.82,4.82,0,0,0,5.73,2.34,18.78,18.78,0,0,0,8.64-4.87,4.93,4.93,0,0,0,1.23-5.71C502.47,178,501.39,176.13,500.3,174Z"/><path d="M463.85,479.16c-3.33,2.85-6.38,5.55-9.54,8.11-3.57,2.89-7.5,3-11.41.83a19.25,19.25,0,0,1-8.57-9.7c-1.73-4.28-1-8.22,2.33-11.44,2.93-2.82,6-5.44,9.32-8.35C451.94,465.46,457.78,472.19,463.85,479.16Zm-19-13.49c-1.77,1.64-3.47,3.07-5,4.66a4.44,4.44,0,0,0-.81,5.32,19.12,19.12,0,0,0,6.62,7.72,5,5,0,0,0,6.24-.17c1.6-1.18,3.09-2.5,4.8-3.9Z"/><path d="M245.14,93.83c-2-8.94-4-17.6-6.08-26.59,4.81-1,9.3-2.08,13.85-2.74a8.16,8.16,0,0,1,7.62,3.25,18.35,18.35,0,0,1,3.74,16.41,8.53,8.53,0,0,1-5.09,6C254.77,92.1,250,92.57,245.14,93.83Zm4.33-5.69c2.29-.58,4.36-1,6.4-1.64a4.43,4.43,0,0,0,3.4-4.19,18.12,18.12,0,0,0-2.46-10.57,4.56,4.56,0,0,0-4.42-2.4c-2.27.2-4.5.76-7,1.19C246.81,76.53,248.11,82.18,249.47,88.14Z"/><path d="M429.68,505.47,425,508.23c-2-3.32-3.84-6.52-6-10.15-.33,1.14-.58,1.83-.73,2.55-.84,3.82-1.69,7.65-2.47,11.48A3.31,3.31,0,0,1,414,514.7c-1.49.74-2.89,1.65-4.86,2.8,1.2-5,2.28-9.56,3.4-14.24L395,494.4c2-1.2,3.64-2.28,5.38-3.13a2.52,2.52,0,0,1,2,.29c3.1,1.67,6.14,3.43,9.21,5.15.69.39,1.4.73,2.33,1.22.5-1.93,1-3.67,1.38-5.44a3,3,0,0,0-.5-1.77c-1-1.89-2.15-3.74-3.38-5.86L416,482Z"/><path d="M60,327.37,71.68,335l14.19-13.63,1.39,6.88L76.19,338a44,44,0,0,0,4.57,3,5.11,5.11,0,0,0,2.76.13c1.94-.28,3.87-.7,6-1.09l1,5.34-26.51,5.1-1.07-5.21c3.62-1.14,7.44-1.37,11.38-2.49-.74-.55-1.2-.94-1.7-1.25-3.25-2-6.48-4.09-9.79-6A4.16,4.16,0,0,1,60.33,332a37.33,37.33,0,0,0-.82-4.42Z"/><path d="M501.87,434.22c-4,5.54-7.85,10.82-11.82,16.27l-3.7-2.68,8.53-11.8-4.76-3.56-8.09,11-3.61-2.65,7.92-11-5.94-4.3-8.89,12.2-3.7-2.66,12.1-16.68Z"/><path d="M70.73,376.85l-5.28-19.42,4.37-1.18c1.29,4.64,2.54,9.16,3.89,14l5.76-1.47c-1.17-4.39-2.29-8.6-3.49-13.09l4.31-1.28,3.65,13.09L91,365.6,87.09,351l4.35-1.25c1.82,6.62,3.58,13.07,5.44,19.86C88.24,372.17,79.56,374.38,70.73,376.85Z"/><path d="M389.64,106.23C393.78,98,397.75,90.1,401.83,82l4.85,2.48c-1.61,3.24-3.12,6.29-4.72,9.53l9.52,4.81,4.83-9.47,4.89,2.4-12.13,24.11c-.57-.21-.95-.31-1.29-.48-1.14-.56-2.27-1.15-3.64-1.85L409.4,103l-9.52-4.83-5.39,10.55Z"/><path d="M176.37,500l4.39,2.3a6.54,6.54,0,0,1,.08,1,5.62,5.62,0,0,0,5.54,6.09,2.26,2.26,0,0,0,2.31-.93,2.21,2.21,0,0,0-.27-2.68c-.85-1.06-1.79-2-2.71-3-1.19-1.29-2.5-2.49-3.59-3.85a7.65,7.65,0,0,1-.57-9.55,7.93,7.93,0,0,1,8.79-3.4,16.44,16.44,0,0,1,8.37,4.89,8.64,8.64,0,0,1,1,10.56l-4.33-2a3.67,3.67,0,0,1-.06-.75c.76-4.15-.95-6.88-5-7.73a5.28,5.28,0,0,0-3,.37,2.5,2.5,0,0,0-1,3.82,30.89,30.89,0,0,0,2.68,3.06,52.3,52.3,0,0,1,4.37,5.06,7,7,0,0,1-.84,8.83,7.24,7.24,0,0,1-7.31,1.88,15.48,15.48,0,0,1-7.74-4.57C174.92,506.67,174.56,503.67,176.37,500Z"/><path d="M152.09,134.21l3.33-3.63c.42.2.64.29.84.41,3.41,2.06,6.46,1.53,8.71-1.71a5.83,5.83,0,0,0,.92-3.1,2.38,2.38,0,0,0-2.9-2.42,22.15,22.15,0,0,0-3.85,1.25,67.39,67.39,0,0,1-6.52,2.31,6.56,6.56,0,0,1-7.16-2.73,6.64,6.64,0,0,1-.58-7.46,14.14,14.14,0,0,1,8.91-7.16c3.09-.88,5.76.1,8,2.71L158,116a2.43,2.43,0,0,1-.6-.06,5.6,5.6,0,0,0-8.08,2.75c-.84,1.91.23,3.51,2.28,3.2a17.8,17.8,0,0,0,3.62-1.18c1.94-.73,3.82-1.66,5.79-2.26a7.33,7.33,0,0,1,8.53,2.69,7.9,7.9,0,0,1,.56,9.2A16,16,0,0,1,161.9,137,8.59,8.59,0,0,1,152.09,134.21Z"/><path d="M440.59,127.86l4,2.77c-.18.56-.33,1.08-.49,1.58a6.25,6.25,0,0,0,5.07,8,3.32,3.32,0,0,0,3.39-1.3,2.86,2.86,0,0,0-.2-3.37c-.95-1.48-2.05-2.86-2.94-4.37a21.71,21.71,0,0,1-2.46-4.88,7,7,0,0,1,8.3-8.75,13.61,13.61,0,0,1,9.41,7.86c1.24,2.66.75,5.29-1.22,7.91l-4.07-3a3.61,3.61,0,0,1,0-.68,5.45,5.45,0,0,0-4.19-7.19,3.41,3.41,0,0,0-2.42.44,2,2,0,0,0-.33,2.62c.62,1.21,1.39,2.33,2.12,3.47,1,1.62,2.19,3.16,3.08,4.85a7.52,7.52,0,0,1-1.21,9.07,7.82,7.82,0,0,1-8.76,2.08,16.11,16.11,0,0,1-8.13-6.78A8.65,8.65,0,0,1,440.59,127.86Z"/><path d="M222.8,80.66l-4.41,2c-.3-.08-.5-.07-.59-.17a5.64,5.64,0,0,0-8.41,0,2.34,2.34,0,0,0-.83,2.57,2.12,2.12,0,0,0,2.26,1.42c1.59,0,3.18-.17,4.77-.27,1.75-.1,3.51-.33,5.25-.29a7.14,7.14,0,0,1,6.82,4.79c1.23,3,1,5.92-1.18,8.3a14.47,14.47,0,0,1-12.27,4.78c-3.41-.29-5.54-2.47-7.23-5.59l4.78-2.44a8.16,8.16,0,0,0,.69,1,6.15,6.15,0,0,0,9.27,0,3.37,3.37,0,0,0,1-3.71c-.51-1.29-1.51-1.91-3.32-1.8s-3.64.5-5.47.57a19.33,19.33,0,0,1-5.22-.22A6.94,6.94,0,0,1,205,80.31a13.35,13.35,0,0,1,12.06-4.53C219.71,76.09,221.47,77.68,222.8,80.66Z"/><path d="M386.82,75.52v29.14l-5.39-2.06V96l-10-4L367,96.79l-4.92-2c.86-1.73,15.73-18,19.55-21.4Zm-5.31,5.07-6.83,7.66a36.15,36.15,0,0,0,6.83,2.53Z"/><path d="M501,377.81l6.56-.51c1.12-3.41,2.21-6.73,3.36-10.21L505.8,363c.56-1.78,1.09-3.44,1.62-5.11,1.7.74,20.07,15.65,22.57,18.3l-1.74,5.29-29.14,1.88C499.82,381.26,500.41,379.49,501,377.81Zm21.37-1.1.19-.47-7.7-6.06a44.83,44.83,0,0,0-2.25,6.93Z"/><path d="M296.61,86.4l-5.83.56-2.9-5.8c-.76,0-1.54,0-2.31,0-2.23.15-4.46.4-6.69.5-1.29.07-2,.48-2.31,1.87a48,48,0,0,1-1.32,4.65l-5.7.45c2.79-9.39,5.51-18.52,8.29-27.87l5.81-.43C288,69,292.22,77.57,296.61,86.4Zm-15.16-19-.44,0c-.84,3.11-1.68,6.22-2.61,9.64l7.31-.59Z"/><path d="M469.78,160.8l-6.93-8.23-6.21,2.18L453,150.42c9.18-3.34,18.2-6.3,27.4-9.51l3.81,4.39c-4.54,8.56-9,17-13.67,25.82l-3.83-4.49Zm7.26-13-.3-.41-9.32,3.47,4.74,5.63Z"/><path d="M433.68,133.05l-4.8-3.4,1.54-6.45-8.7-6.25-5.49,3.63-4.29-3.06c1.21-1.51,16.32-11.64,24-16.12.67.46,1.45,1,2.21,1.51s1.54,1.12,2.46,1.8C438.31,114.08,436,123.42,433.68,133.05Zm-7.94-18.89a63.71,63.71,0,0,0,6.05,4.17c.77-3.43,1.91-6.41,2.48-10Z"/><path d="M369.68,511.09l10.15-3.54v-6.48l5.45-1.95c-.1,9.85-.65,19.42-.9,28.68a5.48,5.48,0,0,1-.43.48c-4.81,2.12-4.82,2.12-8.24-1.81l-14.14-16.26c-.56-.65-1.1-1.32-1.62-1.94.21-.22.25-.31.31-.33,1.58-.55,3.3-1.75,4.69-1.45s2.36,2.14,3.51,3.31C368.85,510.19,369.22,510.6,369.68,511.09Zm3.35,3.68c1.71,2.84,5,6.63,6.55,7.59v-9.82Z"/><path d="M107.49,446.67l-3.3-4.2c.56-.51,1-1,1.47-1.33,3.37-2.69,6.73-5.39,10.13-8a45.09,45.09,0,0,1,4.3-3,7.51,7.51,0,0,1,9.35.55,17.14,17.14,0,0,1,5.25,6.74,7.78,7.78,0,0,1-1.49,9.09,36.17,36.17,0,0,1-3.35,3.08c-3.72,3-7.49,6-11.24,9-.3.24-.64.43-1.13.77l-3.29-4.13c.72-.62,1.35-1.19,2-1.72,3.49-2.79,7-5.56,10.49-8.36a25.94,25.94,0,0,0,2.14-1.92,4.05,4.05,0,0,0,1.17-3.74,6.5,6.5,0,0,0-3.63-4.78,3.74,3.74,0,0,0-4.07.5c-1.86,1.38-3.71,2.77-5.53,4.2C113.77,441.66,110.78,444.06,107.49,446.67Z"/><path d="M505.05,236.91c-.78-2-1.43-3.68-2.14-5.49l4.83-4.45c-1.27-3.29-2.54-6.61-3.84-10h-6.59l-2.05-5.23h28.85c.11.09.19.13.23.2,2.42,4.72,2.42,4.72-1.43,8.32L507.16,235C506.58,235.54,506,236.06,505.05,236.91Zm13.78-19.86-.24-.51c-3.2,0-6.39.07-9.84.27l2.66,6.84Z"/><path d="M523.76,321.81l-10-1.31c.2-1.77.39-3.39.6-5.3,9,.88,17.81,2,26.72,3.12a15.42,15.42,0,0,1,0,1.82c-.47,3.8-.86,7.62-1.49,11.39-.78,4.68-4,6.91-9,6.43a7.63,7.63,0,0,1-7.34-7.92c0-1.83.22-3.66.35-5.49C523.57,323.69,523.66,322.84,523.76,321.81Zm4.88.57a17.45,17.45,0,0,0-.7,6.56,3.32,3.32,0,0,0,3.11,3.37,3.42,3.42,0,0,0,4-2.61c.48-2.06.66-4.19,1-6.48Z"/><path d="M499.48,423.73c.52-1.76,1-3.34,1.48-5a7.76,7.76,0,0,1,1-.05,5.48,5.48,0,0,0,6-3.3,5.87,5.87,0,0,0-1-7.08,16.6,16.6,0,0,0-8.84-5,5.87,5.87,0,0,0-6.35,2.85,5.63,5.63,0,0,0,.31,6.52c.41.59.87,1.14,1.41,1.83l-4,3.64c-3.11-3.2-4.55-6.68-3.28-11,2.24-7.63,9.45-11.17,16.81-8.21a19.29,19.29,0,0,1,7.44,5.1A12.54,12.54,0,0,1,507,423.2,9,9,0,0,1,499.48,423.73Z"/><path d="M534.76,297.73l-1.65-4.87c.49-.34.85-.62,1.24-.86a5.54,5.54,0,0,0,2.73-5.71,5.83,5.83,0,0,0-4.23-5.3,15.21,15.21,0,0,0-11.2,1,5.61,5.61,0,0,0-3.16,6,5.5,5.5,0,0,0,4,4.93c.67.24,1.34.45,2.19.73-.38,1.67-.74,3.27-1.18,5.19-3.21-.51-5.85-1.73-7.64-4.4-3.41-5.07-3.28-14.34,5-18.07a17.74,17.74,0,0,1,12.66-.77c8.63,2.56,10,12.61,7,17.81A8.88,8.88,0,0,1,534.76,297.73Z"/><path d="M134.39,471l5.15,5.4-3.25,3.23L121.5,464.24l3.2-3.15,5.34,5.73,16.22-15.58c1.33,1.24,2.53,2.37,4,3.73l-5.33,5.14c-1.78,1.73-3.62,3.39-5.34,5.17S136.26,469,134.39,471Z"/><path d="M159,491.32c4.44-6.1,8.75-12,13.2-18.15l4.45,3.17L163.41,494.6l6.46,4.73L167.19,503l-17.4-12.66,2.64-3.67Z"/><path d="M101.1,380.6l2,5.07-20.9,8.22c.95,2.57,1.83,4.94,2.78,7.52L80.73,403l-7.8-20,4.24-1.64c1,2.53,2,4.87,3,7.4Z"/><path d="M88.56,419l3.84-2.48,4.37,6.7L115.61,411c1,1.5,2,2.91,3.07,4.53L99.79,427.78l4.27,6.78-3.8,2.49Z"/><path d="M508.59,351.26c.45-1.9.81-3.44,1.24-5.28l21.86,5.12,1.95-7.72,4.41,1c-1.65,7-3.26,13.8-4.94,20.93l-4.4-1c.57-2.6,1.12-5.05,1.72-7.8Z"/><path d="M89.52,241.4l4.36,1.14c-1.46,6.19-2.88,12.21-4.37,18.5l-26.12-6.17c.43-1.83.81-3.48,1.23-5.32l21.65,5.08C87.35,250.23,88.4,245.94,89.52,241.4Z"/><path d="M233.61,505.21l5.2,1.71c-2.86,8.6-5.65,17-8.52,25.68L225.13,531C227.82,522.37,230.73,514,233.61,505.21Z"/><path d="M515.78,192.31l2.43,4.89-24.27,12-2.45-4.89Z"/><path d="M541.16,304.84v5.52l-26.83-.73v-5.31C523.29,304.11,532.16,304.84,541.16,304.84Z"/><path d="M141.16,483.35l17.51-20.66,4.19,3.52-17.49,20.65Z"/><path d="M387.28,497.43l5-2.3c3.76,8.17,7.46,16.24,11.29,24.58l-4.93,2.38Z"/><path d="M132,128.23l3.73-4,18.65,19.46-3.85,3.9Z"/><path d="M120.12,185.37,97.41,170.66l2.91-4.65,22.76,14.75Z"/><path d="M420.74,479.1l4.42-3.22,15.8,22-4.42,3.23Z"/><path d="M189.78,86.46,194.69,84c4,8.14,7.94,16.13,12,24.3l-4.85,2.46C197.72,102.73,193.87,94.71,189.78,86.46Z"/><path class="cls-1" d="M488.61,299.76c-.23,105.41-85.8,188.23-188.18,188.13-103.34-.11-188-84.19-187.84-188.43.16-103.83,84.32-187.93,188.14-187.85S488.65,195.93,488.61,299.76Zm-366.71,0c0,98.65,79.87,178.66,178.38,178.81,99.14.16,178.92-80.43,179-178.69.05-98.65-80.06-179-178.74-178.94C202.74,120.92,122,200.21,121.9,299.73Z"/><path class="cls-1" d="M132.22,160.8l-5.6-4.78c2-2.22,3.79-4.36,5.78-6.28a3.44,3.44,0,0,1,5.06,4.61C135.85,156.52,134.06,158.55,132.22,160.8Z"/><path class="cls-1" d="M118.43,149.1c1.72-2,3.18-3.78,4.74-5.47s3-1.81,4.38-.63,1.57,2.8.34,4.47c-1.41,1.9-3,3.68-4.64,5.67Z"/><path class="cls-1" d="M343.65,86.66c.57-2.45,1.09-4.65,1.69-7.17,2.87.78,5.57,1.39,8.18,2.26a3.23,3.23,0,0,1,2.22,4,3.13,3.13,0,0,1-3.9,2.62C349.18,88,346.57,87.28,343.65,86.66Z"/><path class="cls-1" d="M347.83,69c2.63.68,5,1.2,7.39,1.92a2.71,2.71,0,0,1,2.12,3.48A2.79,2.79,0,0,1,354,76.76c-2.51-.36-5-1-7.63-1.57C346.88,73,347.33,71.11,347.83,69Z"/><path class="cls-1" d="M73,269a45.87,45.87,0,0,1,6,1.6c3.17,1.31,4.56,4.13,4.12,7.59a7,7,0,0,1-6,6,15.07,15.07,0,0,1-7.56-.68c-3.75-1.34-5.48-4.34-4.86-8.28.55-3.54,3.16-5.75,7-6,.4,0,.8,0,1.2,0Z"/><path class="cls-1" d="M87.43,230a13.76,13.76,0,0,1-8.11-3.52,6.8,6.8,0,0,1-1.66-7.91A6.64,6.64,0,0,1,84.3,214a14.07,14.07,0,0,1,8.4,3.11,6.88,6.88,0,0,1,2.36,8.14C93.91,228.37,91.42,230.05,87.43,230Z"/><path class="cls-1" d="M500.3,174c1.09,2.13,2.17,4,3,5.94a4.93,4.93,0,0,1-1.23,5.71,18.78,18.78,0,0,1-8.64,4.87,4.82,4.82,0,0,1-5.73-2.34c-1-1.63-1.94-3.29-3.08-5.22,2.54-1.61,5.12-3,7.64-4.4S497.37,175.66,500.3,174Z"/><path class="cls-1" d="M444.85,465.67,456.7,479.3c-1.71,1.4-3.2,2.72-4.8,3.9a5,5,0,0,1-6.24.17,19.12,19.12,0,0,1-6.62-7.72,4.44,4.44,0,0,1,.81-5.32C441.38,468.74,443.08,467.31,444.85,465.67Z"/><path class="cls-1" d="M249.47,88.14c-1.36-6-2.66-11.61-4-17.61,2.46-.43,4.69-1,7-1.19a4.56,4.56,0,0,1,4.42,2.4,18.12,18.12,0,0,1,2.46,10.57,4.43,4.43,0,0,1-3.4,4.19C253.83,87.1,251.76,87.56,249.47,88.14Z"/><path class="cls-1" d="M381.51,80.59V90.78a36.15,36.15,0,0,1-6.83-2.53Z"/><path class="cls-1" d="M522.35,376.71l-9.76.4a44.83,44.83,0,0,1,2.25-6.93l7.7,6.06Z"/><path class="cls-1" d="M281.45,67.45l4.26,9.1-7.31.59c.93-3.42,1.77-6.53,2.61-9.64Z"/><path class="cls-1" d="M477,147.81l-4.88,8.69-4.74-5.63,9.32-3.47Z"/><path class="cls-1" d="M425.74,114.16l8.53-5.87c-.57,3.63-1.71,6.61-2.48,10A63.71,63.71,0,0,1,425.74,114.16Z"/><path class="cls-1" d="M373,514.77l6.55-2.23v9.82C378,521.4,374.74,517.61,373,514.77Z"/><path class="cls-1" d="M518.83,217.05l-7.42,6.6-2.66-6.84c3.45-.2,6.64-.26,9.84-.27Z"/><path class="cls-1" d="M528.64,322.38l7.42.84c-.34,2.29-.52,4.42-1,6.48a3.42,3.42,0,0,1-4,2.61,3.32,3.32,0,0,1-3.11-3.37A17.45,17.45,0,0,1,528.64,322.38Z"/><path d="M121.9,299.73c.07-99.52,80.84-178.81,178.62-178.82,98.68,0,178.79,80.29,178.74,178.94-.06,98.26-79.84,178.85-179,178.69C201.77,478.39,121.91,398.38,121.9,299.73ZM327.31,355c17.26-5.15,28.66-17.37,38.83-31.32l-5.44-4.17a5.77,5.77,0,0,1,2.54-.05,32.59,32.59,0,0,1,16.59,8.56c4.82,4.44,8.3,9.9,11.59,15.5,1.05,1.78,2,3.59,3.17,5.58l15.65-4.49c-.16-.85-.22-1.4-.37-1.92q-1.77-6.48-3.58-12.94-3.53-12.71-7.07-25.4c-.54-2-.58-2-2.6-2-2.8,0-5.59,0-8.39,0a2.35,2.35,0,0,0-2.45,1.47c-.58,1.19-1.3,2.31-1.87,3.3-.41,0-.5.06-.57,0-.29-.11-.59-.23-.88-.37-13.1-6.49-26.92-7.9-41.09-5.11-18.85,3.7-32.58,14.41-41.21,31.63-.27.54-.63,1-.94,1.55-10.47-5.1-18.72-20.35-19.4-30.53,24.31-5.54,38-21.36,43.56-45.32.73.39,1.42.71,2.07,1.11a34,34,0,0,1,10.25,9.28c3.13,4.43,5.93,9.09,8.86,13.66.51.8.95,1.63,1.47,2.53,5.32-1.52,10.52-2.89,15.79-4.57L350.15,239c-3.89,0-7.48,0-11.07,0-1,0-1.4.59-1.81,1.31-.69,1.21-1.42,2.4-2,3.41-3.5-1.37-6.66-2.71-9.9-3.81a2.55,2.55,0,0,1-2-2.5,52.68,52.68,0,0,0-3.46-14.16c-6.16-15.28-16.75-25.87-32.77-30.58a81.71,81.71,0,0,0-22.74-2.95c-20.62-.12-41.24-.05-61.86-.05-.68,0-1.37.12-2,.18-.48,3.48-.33,14.25.25,16.12.72,0,1.51,0,2.29,0,2,.06,4,0,6,.23,3.41.41,4.93,2.06,5.25,5.47.11,1.11.11,2.24.11,3.35q0,33.12,0,66.23a36,36,0,0,1-.13,3.6c-.36,3.56-2.24,5.51-5.8,5.88-2,.2-4,.12-6,.2-.68,0-1.36.11-2,.17-.51,4-.32,14.31.33,16.14h45.32c5.81,26.73,21.18,44,48,50.39v1.24a62.27,62.27,0,0,0,6.1,29.05c7.64,15.69,19.64,26.43,36.4,31.52a63.83,63.83,0,0,0,29.65,1.52,62.88,62.88,0,0,0,30.82-14c6.56-5.57,12-12.17,17.12-19a3.07,3.07,0,0,0,.24-.86l-12.9-9.44c-.67.85-1.17,1.46-1.65,2.09a65,65,0,0,1-20.64,18,34.87,34.87,0,0,1-22,4c-8.35-1.22-14.86-5.56-19.92-12.18C329.7,379.38,327,367.86,327.31,355Z"/><path class="cls-1" d="M327.31,355c-.35,12.82,2.39,24.34,10.07,34.38,5.06,6.62,11.57,11,19.92,12.18a34.87,34.87,0,0,0,22-4,65,65,0,0,0,20.64-18c.48-.63,1-1.24,1.65-2.09l12.9,9.44a3.07,3.07,0,0,1-.24.86c-5.13,6.87-10.56,13.47-17.12,19a62.88,62.88,0,0,1-30.82,14,63.83,63.83,0,0,1-29.65-1.52c-16.76-5.09-28.76-15.83-36.4-31.52a62.27,62.27,0,0,1-6.1-29.05v-1.24c-26.86-6.37-42.23-23.66-48-50.39H200.82c-.65-1.83-.84-12.11-.33-16.14.62-.06,1.3-.15,2-.17,2-.08,4,0,6-.2,3.56-.37,5.44-2.32,5.8-5.88a36,36,0,0,0,.13-3.6q0-33.1,0-66.23c0-1.11,0-2.24-.11-3.35-.32-3.41-1.84-5.06-5.25-5.47-2-.23-4-.17-6-.23-.78,0-1.57,0-2.29,0-.58-1.87-.73-12.64-.25-16.12.62-.06,1.31-.18,2-.18,20.62,0,41.24-.07,61.86.05a81.71,81.71,0,0,1,22.74,2.95c16,4.71,26.61,15.3,32.77,30.58a52.68,52.68,0,0,1,3.46,14.16,2.55,2.55,0,0,0,2,2.5c3.24,1.1,6.4,2.44,9.9,3.81.59-1,1.32-2.2,2-3.41.41-.72.83-1.32,1.81-1.31,3.59,0,7.18,0,11.07,0L361.82,281c-5.27,1.68-10.47,3-15.79,4.57-.52-.9-1-1.73-1.47-2.53-2.93-4.57-5.73-9.23-8.86-13.66a34,34,0,0,0-10.25-9.28c-.65-.4-1.34-.72-2.07-1.11-5.57,24-19.25,39.78-43.56,45.32.68,10.18,8.93,25.43,19.4,30.53.31-.51.67-1,.94-1.55,8.63-17.22,22.36-27.93,41.21-31.63,14.17-2.79,28-1.38,41.09,5.11.29.14.59.26.88.37.07,0,.16,0,.57,0,.57-1,1.29-2.11,1.87-3.3a2.35,2.35,0,0,1,2.45-1.47c2.8.08,5.59,0,8.39,0,2,0,2.06,0,2.6,2q3.55,12.69,7.07,25.4,1.8,6.46,3.58,12.94c.15.52.21,1.07.37,1.92l-15.65,4.49c-1.13-2-2.12-3.8-3.17-5.58-3.29-5.6-6.77-11.06-11.59-15.5a32.59,32.59,0,0,0-16.59-8.56,5.77,5.77,0,0,0-2.54.05l5.44,4.17C356,337.67,344.57,349.89,327.31,355Zm-81.26-67.57c5-25.72,19.75-42.37,45.18-49.21-.08-.76-.09-1.4-.21-2A42.43,42.43,0,0,0,283.49,219a22.79,22.79,0,0,0-13.2-9,38.85,38.85,0,0,0-7.31-1.2c-5.82-.26-11.65-.26-17.48-.34a11,11,0,0,0-1.76.26V211q0,35.27,0,70.54a23.35,23.35,0,0,0,.15,3.35A2.63,2.63,0,0,0,246.05,287.47Zm43.36-22.88a29.85,29.85,0,0,0-8.15,13.85A30.88,30.88,0,0,0,289.41,264.59Zm46.18,66.31a38.14,38.14,0,0,0,10.05-8.53A23,23,0,0,0,335.59,330.9Z"/><path d="M246.05,287.47a2.63,2.63,0,0,1-2.15-2.57,23.35,23.35,0,0,1-.15-3.35q0-35.26,0-70.54v-2.24a11,11,0,0,1,1.76-.26c5.83.08,11.66.08,17.48.34a38.85,38.85,0,0,1,7.31,1.2,22.79,22.79,0,0,1,13.2,9A42.43,42.43,0,0,1,291,236.24c.12.62.13,1.26.21,2C265.8,245.1,251,261.75,246.05,287.47Z"/><path d="M289.41,264.59a30.88,30.88,0,0,1-8.15,13.85A29.85,29.85,0,0,1,289.41,264.59Z"/><path d="M335.59,330.9a23,23,0,0,1,10.05-8.53A38.14,38.14,0,0,1,335.59,330.9Z"/></g></g></svg>